<svg xmlns="http://www.w3.org/2000/svg" version="1.1" xmlns:xlink="http://www.w3.org/1999/xlink" width="512" height="512" x="0" y="0" viewBox="0 0 64 64" style="enable-background:new 0 0 512 512" xml:space="preserve" class=""><g><linearGradient id="a" x2="64" y1="32" y2="32" gradientUnits="userSpaceOnUse"><stop offset="0" stop-color="#ffffd5"></stop><stop offset="1" stop-color="#ffe59a"></stop></linearGradient><linearGradient id="b" x1="12" x2="52" y1="32.472" y2="32.472" gradientUnits="userSpaceOnUse"><stop offset="0" stop-color="#ffde00"></stop><stop offset="1" stop-color="#fd5900"></stop></linearGradient><circle cx="32" cy="32" r="32" fill="url(#a)" opacity="1" data-original="url(#a)" class=""></circle><path fill="url(#b)" d="M29.386 32.97a1.9 1.9 0 0 1 0 3.8h-9.472a1.9 1.9 0 0 1 0-3.8zm5.228 3.8h9.472a1.9 1.9 0 0 0 0-3.8h-9.472a1.9 1.9 0 0 0 0 3.8zm9.472-5.228a3.3 3.3 0 0 1 1.9.6v-3.35a3.723 3.723 0 0 1 3.007-3.636v-1.871a2.628 2.628 0 0 0-2.622-2.622h-11.3a2.36 2.36 0 0 0-2.357 2.358v9.121a3.331 3.331 0 0 1 1.9-.6zm-26.072-2.75v3.35a3.298 3.298 0 0 1 1.9-.6h9.472a3.3 3.3 0 0 1 1.9.6V23.02a2.36 2.36 0 0 0-2.357-2.358h-11.3a2.628 2.628 0 0 0-2.622 2.622v1.878a3.74 3.74 0 0 1 3.007 3.629zm33.893-.643a2.299 2.299 0 0 0-4.493.65v5.807a3.365 3.365 0 0 1-3.328 3.593h-9.472A3.296 3.296 0 0 1 32 36.906a3.713 3.713 0 0 1-.264.322 3.301 3.301 0 0 1-2.35.971h-9.472a3.332 3.332 0 0 1-3.328-3.329v-6.078a2.294 2.294 0 1 0-3.493 1.964 2.009 2.009 0 0 1 .914 1.707v6.022a2.295 2.295 0 0 0 2.293 2.293h1.079v2.8a.714.714 0 0 0 1.428 0v-2.8h26.386v2.8a.714.714 0 0 0 1.428 0v-2.8H47.7a2.295 2.295 0 0 0 2.293-2.293v-6.022a1.998 1.998 0 0 1 .921-1.707 2.307 2.307 0 0 0 .993-2.607z" opacity="1" data-original="url(#b)" class=""></path></g></svg>