<svg xmlns="http://www.w3.org/2000/svg" version="1.1" xmlns:xlink="http://www.w3.org/1999/xlink" width="512" height="512" x="0" y="0" viewBox="0 0 512 512" style="enable-background:new 0 0 512 512" xml:space="preserve" class=""><g><path fill="#4f7693" d="m170.012 443.715-52.012 52L17.535 395.25l51.63-51.64a199.43 199.43 0 0 0 9.226 17.515c7.75 13.074 62.23 66.676 74.867 73.96a208.903 208.903 0 0 0 16.754 8.63zm0 0" opacity="1" data-original="#4f7693" class=""></path><path fill="#fecbaa" d="M462.32 255.906c0 113.985-92.402 206.387-206.386 206.387-113.98 0-206.383-92.402-206.383-206.387S141.953 49.523 255.934 49.523c113.984 0 206.386 92.399 206.386 206.383zm0 0" opacity="1" data-original="#fecbaa" class=""></path><path fill="#ffae85" d="M401.871 109.973c-13.226-13.227-27.805-24.27-43.285-33.153 51.14 79.871 41.82 187.258-28 257.078C263.215 401.27 160.856 412.312 82 367.051a206.982 206.982 0 0 0 28 34.793c80.598 80.597 211.273 80.597 291.871 0s80.598-211.274 0-291.871zm0 0" opacity="1" data-original="#ffae85"></path><path fill="#ff84a7" d="m22.375 354.027 36.629-36.625c2.762 8.903 16.008 38 19.387 43.72l-19.563 19.562c-8.422 8.421-8.422 22.074 0 30.496l43.918 43.918c8.422 8.422 22.074 8.422 30.496 0l53.39-53.391c8.712-8.71 22.84-8.71 31.552 0 8.714 8.715 8.714 22.844 0 31.555l-58.286 58.289c-25.968 25.965-67.296 27.207-94.746 3.707a77.317 77.317 0 0 1-3.992-3.707L22.38 452.766a66.685 66.685 0 0 1-4.067-4.438c-23.136-27.426-21.769-68.465 4.063-94.3zm0 0" opacity="1" data-original="#ff84a7" class=""></path><path fill="#4f7693" d="m494.512 116.762-51.625 51.629a204.925 204.925 0 0 0-9.23-17.516 206.22 206.22 0 0 0-27.954-36.934 173.992 173.992 0 0 0-3.844-3.968 54.154 54.154 0 0 0-1.582-1.559 211.305 211.305 0 0 0-5.629-5.312 206.495 206.495 0 0 0-35.859-26.184 205.831 205.831 0 0 0-16.762-8.621l52.012-52.008zm0 0" opacity="1" data-original="#4f7693" class=""></path><path fill="#ff84a7" d="m489.664 157.973-36.625 36.629a204.766 204.766 0 0 0-10.156-26.215 202.024 202.024 0 0 0-9.23-17.508l19.562-19.563c8.418-8.418 8.418-22.074 0-30.496l-43.918-43.914c-8.422-8.422-22.074-8.422-30.496 0l-53.39 53.387c-8.716 8.715-22.84 8.715-31.556 0-8.71-8.711-8.71-22.84 0-31.555l58.29-58.285c25.964-25.969 67.296-27.21 94.742-3.707a74.194 74.194 0 0 1 3.996 3.707l38.781 38.781a69.826 69.826 0 0 1 4.066 4.438c23.133 27.426 21.77 68.469-4.066 94.3zm0 0" opacity="1" data-original="#ff84a7" class=""></path><path fill="#ef6085" d="m293.855 104.379 58.29-58.29c25.968-25.968 67.296-27.206 94.742-3.706a75.82 75.82 0 0 1 3.996 3.707l38.781 38.785a67.61 67.61 0 0 1 4.066 4.434 69.404 69.404 0 0 1 15.2 32.097c3.715-20.004-1.344-41.308-15.2-57.734a68.684 68.684 0 0 0-4.066-4.438l-38.781-38.78a74.194 74.194 0 0 0-3.996-3.708c-27.446-23.504-68.774-22.262-94.742 3.707l-58.29 58.285c-7.785 7.79-8.593 19.89-2.457 28.598a22.122 22.122 0 0 1 2.457-2.957zM455.273 128.89a21.476 21.476 0 0 1-2.058 2.426l-19.563 19.563a202.531 202.531 0 0 1 8.875 16.766l10.688-10.688c7.656-7.656 8.324-19.625 2.058-28.066zm0 0" opacity="1" data-original="#ef6085"></path><path fill="#2f5066" d="m415.14 104.508-9.363 9.37c-.023.024-.05.044-.074.063a173.992 173.992 0 0 0-3.844-3.968 54.154 54.154 0 0 0-1.582-1.559 211.305 211.305 0 0 0-5.629-5.312c.051-.063.102-.122.164-.184l9.372-9.363a7.745 7.745 0 0 1 10.957 0c3.027 3.027 3.027 7.933 0 10.953zm0 0" opacity="1" data-original="#2f5066" class=""></path><path fill="#fecbaa" d="M438.617 86.23 424.29 71.902c-8.992-8.992-8.992-23.574 0-32.566L452.4 11.23c8.992-8.992 23.57-8.992 32.562 0l14.328 14.325c8.992 8.992 8.992 23.574 0 32.566l-28.11 28.106c-8.991 8.996-23.57 8.996-32.562.003zm0 0" opacity="1" data-original="#fecbaa" class=""></path><path fill="#c97f4c" d="m454.273 70.57-14.328-14.324c-8.992-8.992-8.992-23.574 0-32.566l12.453-12.45c8.993-8.992 23.57-8.992 32.563 0l14.328 14.329c8.992 8.992 8.992 23.57 0 32.562l-12.453 12.45c-8.992 8.992-23.57 8.992-32.563 0zm0 0" opacity="1" data-original="#c97f4c"></path><path fill="#ef6085" d="m54.512 404.953-1.942 1.945c-8.422 8.422-8.422 22.075 0 30.497l43.918 43.917c8.418 8.418 22.075 8.418 30.496 0l53.387-53.39c8.715-8.715 22.84-8.715 31.555 0a22.225 22.225 0 0 1 4.683 6.914l1.575-1.574c8.714-8.711 8.714-22.84 0-31.555-8.711-8.71-22.84-8.71-31.555 0l-53.387 53.39c-8.422 8.423-22.074 8.423-30.496 0L58.828 411.18a21.473 21.473 0 0 1-4.316-6.227zM16.117 380.242l16.172-16.168c9.3-9.304 24.926-6.418 30.488 5.5a189.018 189.018 0 0 0 2.328 4.832l13.286-13.281a202.635 202.635 0 0 1-9.235-17.508 204.744 204.744 0 0 1-10.152-26.215l-36.629 36.625C9.453 366.95 2.652 383.676 1.98 400.602a69.621 69.621 0 0 1 14.137-20.36zm0 0" opacity="1" data-original="#ef6085"></path><path fill="#2f5066" d="M117.39 408.898c-.05.063-.1.125-.167.188l-9.364 9.363a7.715 7.715 0 0 1-5.484 2.274 7.724 7.724 0 0 1-5.477-2.274 7.74 7.74 0 0 1 0-10.953l9.364-9.375c.02-.02.05-.039.07-.062a166.268 166.268 0 0 0 3.844 3.968c.527.528 1.054 1.055 1.582 1.563a205.114 205.114 0 0 0 5.633 5.308zm0 0" opacity="1" data-original="#2f5066" class=""></path><path fill="#fecbaa" d="m73.426 425.773 14.328 14.329c8.992 8.992 8.992 23.57 0 32.562l-28.11 28.11c-8.992 8.992-23.574 8.992-32.562 0l-14.328-14.329c-8.992-8.992-8.992-23.57 0-32.562l28.105-28.11c8.993-8.992 23.575-8.992 32.567 0zm0 0" opacity="1" data-original="#fecbaa" class=""></path><path fill="#c97f4c" d="m57.957 441.242 14.324 14.324c8.992 8.993 8.992 23.575 0 32.567l-12.636 12.64c-8.993 8.993-23.575 8.993-32.567 0l-14.324-14.328c-8.992-8.992-8.992-23.574 0-32.562l12.637-12.64c8.996-8.993 23.574-8.993 32.566 0zm0 0" opacity="1" data-original="#c97f4c"></path><path fill="#4f7693" d="M495.71 394 395.247 494.477l-51.629-51.63a206.045 206.045 0 0 0 17.508-9.238 205.444 205.444 0 0 0 36.941-27.945c1.332-1.25 2.657-2.539 3.957-3.844.528-.523 1.055-1.043 1.57-1.578a193.492 193.492 0 0 0 5.302-5.633 206.02 206.02 0 0 0 26.187-35.859 209.051 209.051 0 0 0 8.629-16.762zm0 0" opacity="1" data-original="#4f7693" class=""></path><path fill="#83d9ff" d="m354.027 489.625-36.629-36.629a204.52 204.52 0 0 0 26.215-10.152 203.108 203.108 0 0 0 17.508-9.23l19.563 19.558c8.421 8.422 22.074 8.422 30.496 0l43.918-43.914c8.418-8.422 8.418-22.078 0-30.5l-53.391-53.387c-8.71-8.715-8.71-22.844 0-31.555 8.715-8.714 22.84-8.714 31.555 0l58.285 58.286c25.969 25.968 27.21 67.296 3.707 94.746a72.568 72.568 0 0 1-3.707 3.992l-38.781 38.785a68.778 68.778 0 0 1-4.438 4.066c-27.426 23.133-68.465 21.766-94.3-4.066zm0 0" opacity="1" data-original="#83d9ff"></path><path fill="#5fc9ed" d="M401.707 320.629c8.715-8.715 22.84-8.715 31.555 0l58.285 58.285a69.46 69.46 0 0 1 19.148 36.008c4.305-22.04-2.078-45.75-19.148-62.82l-58.285-58.286c-8.715-8.714-22.84-8.714-31.555 0-7.965 7.965-8.625 20.442-2.027 29.184a22.215 22.215 0 0 1 2.027-2.371zM337.758 472.273c14.504-6.671 31.637-3.578 42.926 7.711 8.421 8.422 22.074 8.422 30.496 0l43.918-43.918c7.832-7.832 8.367-20.187 1.629-28.652a22.538 22.538 0 0 1-1.63 1.844l-43.917 43.914c-8.422 8.422-22.075 8.422-30.496 0l-19.563-19.559a203.108 203.108 0 0 1-17.508 9.23 204.52 204.52 0 0 1-26.215 10.153l19.614 19.613c.168-.074.422-.187.746-.336zm0 0" opacity="1" data-original="#5fc9ed" class=""></path><path fill="#2f5066" d="M418.457 415.102c-1.52 1.507-3.504 2.273-5.488 2.273s-3.969-.766-5.477-2.273l-9.363-9.364c-.02-.02-.04-.05-.063-.074 1.332-1.25 2.657-2.539 3.957-3.844.528-.523 1.055-1.043 1.575-1.578a198.984 198.984 0 0 0 5.3-5.633c.063.051.122.102.184.164l9.375 9.364c3.016 3.027 3.016 7.937 0 10.965zm0 0" opacity="1" data-original="#2f5066" class=""></path><path fill="#fecbaa" d="m425.773 438.578 14.325-14.328c8.992-8.992 23.574-8.992 32.566 0l28.106 28.11c8.992 8.992 8.992 23.57 0 32.562l-14.325 14.328c-8.992 8.992-23.574 8.992-32.566 0l-28.106-28.11c-8.992-8.992-8.992-23.57 0-32.562zm0 0" opacity="1" data-original="#fecbaa" class=""></path><path fill="#c97f4c" d="m441.426 454.227 14.324-14.325c8.992-8.992 23.574-8.992 32.566 0l12.454 12.453c8.992 8.993 8.992 23.575 0 32.567l-14.325 14.324c-8.992 8.992-23.574 8.992-32.566 0l-12.453-12.453c-8.992-8.992-8.992-23.574 0-32.566zm0 0" opacity="1" data-original="#c97f4c"></path><path fill="#4f7693" d="M168.387 69.113a203.061 203.061 0 0 0-17.504 9.239 205.284 205.284 0 0 0-36.942 27.941 152.708 152.708 0 0 0-3.968 3.844c-.528.527-1.043 1.043-1.563 1.582a210.094 210.094 0 0 0-5.3 5.64 206.319 206.319 0 0 0-26.196 35.848 204.598 204.598 0 0 0-8.621 16.762L16.285 117.96 116.758 17.484zm0 0" opacity="1" data-original="#4f7693" class=""></path><path fill="#83d9ff" d="m157.973 22.336 36.629 36.629a204.52 204.52 0 0 0-26.215 10.152 203.108 203.108 0 0 0-17.508 9.23L131.316 58.79c-8.421-8.422-22.074-8.422-30.496 0l-43.918 43.914c-8.418 8.422-8.418 22.078 0 30.5l53.391 53.387c8.715 8.715 8.715 22.844 0 31.555-8.711 8.714-22.84 8.714-31.555 0l-58.285-58.286c-25.969-25.968-27.21-67.297-3.707-94.746 1.18-1.367 2.41-2.699 3.707-3.992l38.781-38.785a69.826 69.826 0 0 1 4.438-4.066c27.426-23.133 68.465-21.77 94.3 4.066zm0 0" opacity="1" data-original="#83d9ff"></path><path fill="#5fc9ed" d="M56.902 133.203a22.106 22.106 0 0 1-2.347-2.816c-5.957 8.418-5.192 20.136 2.347 27.675l53.391 53.391a22.37 22.37 0 0 1 2.746 3.348c5.836-8.676 4.926-20.54-2.746-28.211zM16.746 89.977a72.638 72.638 0 0 1 3.707-3.997L59.234 47.2a68.684 68.684 0 0 1 4.438-4.067c27.426-23.137 68.469-21.77 94.3 4.066l18.395 18.39a203.207 203.207 0 0 1 18.235-6.624l-36.63-36.63C132.138-3.5 91.099-4.862 63.673 18.27a69.826 69.826 0 0 0-4.438 4.066l-38.78 38.781a72.637 72.637 0 0 0-3.708 3.996C2.703 81.512-2.5 102.863 1.121 122.938c2.133-11.86 7.328-23.278 15.625-32.961zm0 0" opacity="1" data-original="#5fc9ed" class=""></path><path fill="#2f5066" d="M113.938 106.293a152.708 152.708 0 0 0-3.97 3.844 99.203 99.203 0 0 0-1.558 1.582 210.094 210.094 0 0 0-5.3 5.64 1.204 1.204 0 0 1-.196-.175l-9.363-9.364a7.75 7.75 0 0 1 0-10.96 7.747 7.747 0 0 1 10.965 0l9.363 9.363c.02.02.039.05.058.07zm0 0" opacity="1" data-original="#2f5066" class=""></path><path fill="#fecbaa" d="M86.227 73.383 71.898 87.71c-8.992 8.992-23.57 8.992-32.562 0L11.23 59.605c-8.992-8.992-8.992-23.574 0-32.566l14.325-14.324c8.992-8.992 23.574-8.992 32.566 0L86.227 40.82c8.992 8.993 8.992 23.57 0 32.563zm0 0" opacity="1" data-original="#fecbaa" class=""></path><path fill="#c97f4c" d="M68.227 55.383 53.898 69.71c-8.992 8.992-23.57 8.992-32.562 0L11.23 59.605c-8.992-8.992-8.992-23.574 0-32.566l14.325-14.324c8.992-8.992 23.574-8.992 32.566 0L68.227 22.82c8.992 8.993 8.992 23.57 0 32.563zm0 0" opacity="1" data-original="#c97f4c"></path><path fill="#ffffff" d="m207.066 345.46-37.914 33.618a6.78 6.78 0 0 1-9.57-.582l-14.984-16.902-10.282-11.598-15.789-17.816a6.77 6.77 0 0 1 .578-9.559l37.926-33.613a6.77 6.77 0 0 1 9.559.578l15.48 17.453 10.282 11.606 15.293 17.246a6.783 6.783 0 0 1-.579 9.57zM395.832 192.078l-54.395 48.219a7.96 7.96 0 0 1-11.234-.676l-39.48-44.543a7.956 7.956 0 0 1 .675-11.234l54.395-48.215a7.955 7.955 0 0 1 11.23.676l39.485 44.543a7.951 7.951 0 0 1-.676 11.23zm0 0" opacity="1" data-original="#ffffff" class=""></path><path fill="#dae2e8" d="m192.352 318.645-47.711 42.917c-.012.008-.032.02-.04.032l-10.285-11.598 47.704-42.914c.02-.012.03-.031.05-.043zm0 0" opacity="1" data-original="#dae2e8"></path></g></svg>