<svg xmlns="http://www.w3.org/2000/svg" version="1.1" xmlns:xlink="http://www.w3.org/1999/xlink" width="512" height="512" x="0" y="0" viewBox="0 0 512 512" style="enable-background:new 0 0 512 512" xml:space="preserve" class=""><g><path fill="#aa7a63" d="M417.626 381.26H94.374L70.13 504.5h28.285l26.264-70.711h262.642l26.264 70.711h28.285z" opacity="1" data-original="#aa7a63"></path><path fill="#986b54" d="m402.057 406.585 19.262 97.915h20.551l-24.244-123.24H94.374l-3.378 17.173h301.149c4.827 0 8.98 3.415 9.912 8.152z" opacity="1" data-original="#986b54"></path><path fill="#bc95e2" d="M455.183 161.052c-26.586.444-47.659 22.689-47.659 49.279v69.913c0 11.158-9.045 20.203-20.203 20.203H124.679c-11.158 0-20.203-9.045-20.203-20.203v-69.913c0-26.59-21.073-48.835-47.659-49.279C29.658 160.598 7.5 182.478 7.5 209.533c0 18.783 10.688 35.06 26.307 43.112l22.933 97.463c4.295 18.252 20.582 31.152 39.332 31.152h319.857c18.751 0 35.038-12.9 39.332-31.152l22.933-97.463c15.619-8.053 26.307-24.329 26.307-43.112-.001-27.055-22.159-48.935-49.318-48.481z" opacity="1" data-original="#bc95e2"></path><path fill="#ac80dd" d="M455.183 161.052a47.402 47.402 0 0 0-18.285 3.99c17.187 7.456 29.216 24.563 29.216 44.491 0 14.758-6.598 27.969-17.002 36.859-6.552 5.599-10.962 13.298-12.936 21.688l-19.301 82.029c-4.295 18.252-20.582 31.152-39.332 31.152h38.386c18.751 0 35.038-12.9 39.332-31.152l22.933-97.463c15.619-8.053 26.307-24.329 26.307-43.112-.001-27.056-22.159-48.936-49.318-48.482z" opacity="1" data-original="#ac80dd" class=""></path><path fill="#ac80dd" d="M387.321 300.447H124.679c-11.158 0-20.203-9.045-20.203-20.203V47.907c0-22.316 18.091-40.407 40.407-40.407h222.236c22.316 0 40.406 18.091 40.406 40.407v232.337c-.001 11.158-9.046 20.203-20.204 20.203z" opacity="1" data-original="#ac80dd" class=""></path><path fill="#9d66d5" d="M377.22 8.773v257.329c0 5.579-4.523 10.102-10.102 10.102H104.476v4.041c0 11.158 9.045 20.203 20.203 20.203h262.642c11.158 0 20.203-9.045 20.203-20.203V47.907c0-18.828-12.877-34.648-30.304-39.134z" opacity="1" data-original="#9d66d5"></path><circle cx="456.012" cy="209.533" r="16.163" fill="#ffe07d" opacity="1" data-original="#ffe07d"></circle><circle cx="55.988" cy="209.533" r="16.163" fill="#ffe07d" opacity="1" data-original="#ffe07d"></circle><path d="M495.271 169.618c-10.789-10.612-25.055-16.333-40.219-16.067-15.764.267-29.991 7.279-40.033 18.264V116.12c0-4.142-3.357-7.5-7.5-7.5s-7.5 3.358-7.5 7.5v164.12c0 7.008-5.697 12.71-12.699 12.71H124.68c-7.002 0-12.699-5.702-12.699-12.71V47.91c0-18.146 14.759-32.91 32.899-32.91h222.24c18.141 0 32.899 14.764 32.899 32.91v33.21c0 4.142 3.357 7.5 7.5 7.5s7.5-3.358 7.5-7.5V47.91C415.02 21.492 393.532 0 367.12 0H144.88c-26.412 0-47.9 21.492-47.9 47.91v123.905c-10.043-10.985-24.27-17.997-40.036-18.264-15.094-.254-29.426 5.455-40.216 16.067C5.941 180.228 0 194.403 0 209.53c0 19.859 10.359 37.96 27.268 48.052l22.172 94.245c4.281 18.214 18.431 31.82 36.042 35.762L62.771 503.053A7.502 7.502 0 0 0 70.13 512h28.28a7.5 7.5 0 0 0 7.03-4.888l24.454-65.822H327.13c4.143 0 7.5-3.358 7.5-7.5s-3.357-7.5-7.5-7.5H124.68a7.5 7.5 0 0 0-7.03 4.888L93.195 497H79.249l21.29-108.24h21.531c4.143 0 7.5-3.358 7.5-7.5s-3.357-7.5-7.5-7.5h-26c-15.348 0-28.519-10.431-32.029-25.368l-22.931-97.47a7.503 7.503 0 0 0-3.865-4.949C23.524 238.901 15 224.937 15 209.53c0-11.073 4.35-21.45 12.247-29.218 7.899-7.769 18.339-11.939 29.446-11.763 22.215.376 40.287 19.119 40.287 41.781v69.91c0 15.279 12.426 27.71 27.699 27.71H387.32c15.273 0 27.699-12.431 27.699-27.71v-69.91c0-22.662 18.072-41.405 40.284-41.781 11.103-.196 21.551 3.994 29.449 11.763C492.65 188.08 497 198.457 497 209.53c0 15.407-8.524 29.372-22.245 36.444a7.501 7.501 0 0 0-3.865 4.949l-22.931 97.471c-3.511 14.935-16.682 25.366-32.029 25.366H157.07c-4.143 0-7.5 3.358-7.5 7.5s3.357 7.5 7.5 7.5h254.391L432.751 497h-13.946l-24.454-65.822a7.501 7.501 0 0 0-7.03-4.888h-25.19c-4.143 0-7.5 3.358-7.5 7.5s3.357 7.5 7.5 7.5h19.976l24.454 65.822a7.501 7.501 0 0 0 7.03 4.888h28.28a7.502 7.502 0 0 0 7.359-8.947l-22.711-115.465c17.611-3.942 31.761-17.548 36.042-35.76l22.172-94.246C501.641 247.49 512 229.389 512 209.53c0-15.127-5.941-29.302-16.729-39.912z" fill="#000000" opacity="1" data-original="#000000" class=""></path><path d="M479.675 209.533c0-13.047-10.615-23.663-23.663-23.663-13.047 0-23.662 10.615-23.662 23.663s10.615 23.663 23.662 23.663c13.048-.001 23.663-10.616 23.663-23.663zm-32.325 0c0-4.776 3.886-8.663 8.662-8.663s8.663 3.886 8.663 8.663-3.887 8.663-8.663 8.663-8.662-3.887-8.662-8.663zM32.325 209.533c0 13.047 10.615 23.663 23.663 23.663 13.047 0 23.662-10.615 23.662-23.663S69.035 185.87 55.988 185.87c-13.048 0-23.663 10.615-23.663 23.663zm32.325 0c0 4.776-3.886 8.663-8.662 8.663s-8.663-3.886-8.663-8.663 3.887-8.663 8.663-8.663 8.662 3.886 8.662 8.663z" fill="#000000" opacity="1" data-original="#000000" class=""></path><circle cx="280.244" cy="49.927" r="10.102" fill="#000000" opacity="1" data-original="#000000" class=""></circle><circle cx="231.756" cy="49.927" r="10.102" fill="#000000" opacity="1" data-original="#000000" class=""></circle><circle cx="304.488" cy="90.333" r="10.102" transform="rotate(-9.25 304.762 90.624)" fill="#000000" opacity="1" data-original="#000000" class=""></circle><circle cx="256" cy="90.333" r="10.102" transform="rotate(-9.25 256.22 90.593)" fill="#000000" opacity="1" data-original="#000000" class=""></circle><circle cx="207.512" cy="90.333" r="10.102" transform="rotate(-9.25 207.68 90.561)" fill="#000000" opacity="1" data-original="#000000" class=""></circle><path d="M280.244 120.638c-5.579 0-10.102 4.523-10.102 10.102s4.523 10.102 10.102 10.102 10.102-4.523 10.102-10.102c-.001-5.579-4.523-10.102-10.102-10.102zM231.756 120.638c-5.579 0-10.102 4.523-10.102 10.102s4.523 10.102 10.102 10.102 10.102-4.523 10.102-10.102-4.523-10.102-10.102-10.102z" fill="#000000" opacity="1" data-original="#000000" class=""></path></g></svg>